<?xml version="1.0" encoding="UTF-8"?>
<svg id="Layer_2" data-name="Layer 2" xmlns="http://www.w3.org/2000/svg" viewBox="0 0 678.75 276.32">
  <defs>
    <style>
      .cls-1 {
        fill: #ad2f33;
      }

      .cls-2 {
        fill: #11110f;
      }

      .cls-3 {
        fill: #67161f;
      }
    </style>
  </defs>
  <g id="Layer_2-2" data-name="Layer 2">
    <g>
      <g>
        <path class="cls-2" d="M54.99,46.43c-.14,0-.28-.05-.42-.15-.14-.1-.25-.33-.32-.67l-4.07-16.03c-.04-.28-.14-.4-.32-.39-.18.02-.3.15-.37.39l-4.54,16.03c-.11.34-.22.57-.34.67-.12.1-.26.15-.4.15s-.29-.05-.45-.15c-.16-.1-.27-.33-.34-.67l-8.35-32.78c-.25-.96-.52-1.64-.82-2.02-.3-.38-.8-.64-1.51-.78l-.79-.15c-.49-.1-.74-.33-.74-.67s.26-.52.79-.52h8.51c.49,0,.74.19.74.57,0,.31-.26.52-.79.62l-.58.1c-.6.1-.98.3-1.14.59-.16.29-.15.82.03,1.58l6.23,25.23c.07.24.18.36.34.36s.27-.12.34-.36l2.38-8.43c.39-1.31.58-2.52.58-3.62s-.18-2.33-.53-3.67l-2.22-8.84c-.25-.96-.48-1.65-.71-2.07-.23-.41-.54-.65-.92-.72l-.79-.15c-.49-.1-.74-.33-.74-.67s.26-.52.79-.52h7.24c.49,0,.74.19.74.57,0,.31-.26.52-.79.62l-.58.1c-.46.07-.73.26-.82.57-.09.31-.04.84.13,1.6l1.8,7.39c.07.24.18.36.34.36s.27-.12.34-.36l1.9-6.31c.39-1.31.54-2.17.45-2.59-.09-.41-.29-.64-.61-.67l-.58-.1c-.53-.1-.79-.31-.79-.62,0-.38.25-.57.74-.57h5.02c.6,0,.9.19.9.57,0,.35-.3.55-.9.62l-.58.05c-.46.03-.84.31-1.14.83-.3.52-.63,1.36-.98,2.53l-2.01,6.77c-.39,1.28-.59,2.47-.61,3.59-.02,1.12.13,2.35.45,3.7l2.38,9.72c.07.24.18.36.34.36s.25-.12.29-.36l6.08-23.83c.49-2,.18-3.08-.95-3.26l-.58-.1c-.53-.1-.79-.33-.79-.67s.25-.52.74-.52h5.92c.6,0,.9.19.9.57,0,.35-.3.55-.9.62l-.58.05c-.46.03-.85.3-1.19.8-.34.5-.64,1.35-.92,2.56l-8.19,32.31c-.07.34-.18.57-.32.67-.14.1-.28.15-.42.15Z"/>
        <path class="cls-2" d="M67.98,45.91c-.42,0-.63-.19-.63-.57,0-.34.19-.55.58-.62l.74-.1c.74-.1,1.22-.31,1.45-.62.23-.31.34-.83.34-1.55V12.82c0-.62-.1-1.04-.29-1.27-.19-.22-.54-.37-1.03-.44l-1.11-.15c-.39-.07-.58-.28-.58-.62s.19-.55.58-.62c.99-.21,1.81-.45,2.48-.72.67-.28,1.23-.55,1.69-.83.56-.34.99-.52,1.27-.52.39,0,.58.28.58.83v13.7c0,.31.11.49.32.54.21.05.48-.06.79-.34,1.34-1.21,2.52-2.03,3.54-2.48,1.02-.45,2.1-.67,3.22-.67,1.65,0,2.96.54,3.91,1.63.95,1.09,1.43,2.68,1.43,4.78v16.8c0,.72.11,1.23.34,1.53.23.29.71.49,1.45.59l1.16.16c.39.07.58.28.58.62,0,.38-.21.57-.63.57h-8.88c-.49,0-.74-.19-.74-.57,0-.34.19-.55.58-.62l.74-.1c.74-.1,1.22-.31,1.45-.62.23-.31.34-.83.34-1.55v-16.23c0-1.69-.32-2.88-.95-3.57-.63-.69-1.53-1.03-2.69-1.03s-2.14.32-3.04.96c-.9.64-1.61,1.48-2.14,2.53-.53,1.05-.79,2.21-.79,3.49v13.86c0,.72.11,1.24.34,1.55.23.31.71.5,1.45.57l1.43.16c.39.07.58.28.58.62,0,.38-.21.57-.63.57h-9.25Z"/>
        <path class="cls-2" d="M102.11,46.38c-1.8,0-3.41-.59-4.83-1.78-1.43-1.19-2.56-2.82-3.41-4.89-.85-2.07-1.27-4.38-1.27-6.93s.42-4.84,1.27-6.88c.85-2.03,1.99-3.65,3.43-4.86,1.44-1.21,3.05-1.81,4.81-1.81s3.41.6,4.83,1.81c1.43,1.21,2.56,2.83,3.41,4.86.85,2.03,1.27,4.33,1.27,6.88s-.41,4.86-1.24,6.93c-.83,2.07-1.96,3.7-3.41,4.89-1.44,1.19-3.06,1.78-4.86,1.78ZM102.11,45.08c3.66,0,5.49-4.1,5.49-12.3s-1.83-12.25-5.49-12.25-5.49,4.08-5.49,12.25,1.83,12.3,5.49,12.3Z"/>
        <path class="cls-2" d="M128.26,46.38c-1.48,0-2.69-.46-3.65-1.37-.95-.91-1.43-2.13-1.43-3.64s.48-2.89,1.43-4.21c.95-1.33,2.25-2.52,3.91-3.59,1.65-1.07,3.54-1.93,5.65-2.59.46-.14.69-.43.69-.88v-4.7c0-1.65-.26-2.83-.79-3.54-.53-.71-1.25-1.06-2.17-1.06s-1.68.39-2.4,1.16c-.72.78-1.24,2.08-1.56,3.9-.18,1.1-.55,1.9-1.14,2.4-.58.5-1.17.75-1.77.75-.99,0-1.48-.48-1.48-1.45s.29-1.99.87-2.97c.58-.98,1.35-1.88,2.3-2.69.95-.81,1.99-1.46,3.12-1.94,1.13-.48,2.25-.72,3.38-.72,3.49,0,5.23,1.98,5.23,5.95v15.82c0,1.45.37,2.17,1.11,2.17.46,0,.88-.3,1.27-.9.39-.6.58-1.63.58-3.08,0-.55.23-.83.69-.83.42,0,.63.29.63.88,0,2.52-.45,4.33-1.35,5.45-.9,1.12-1.91,1.68-3.04,1.68-.85,0-1.51-.34-2.01-1.01-.49-.67-.83-1.47-1-2.4-.04-.34-.18-.53-.45-.54-.26-.02-.52.15-.77.49-.85,1.14-1.71,2-2.59,2.58-.88.59-1.97.88-3.28.88ZM129.69,44c.92,0,1.76-.32,2.54-.96.77-.64,1.41-1.49,1.9-2.56.49-1.07.74-2.27.74-3.62v-3.77c0-.65-.37-.84-1.11-.57-2.15.76-3.81,1.8-4.99,3.13-1.18,1.33-1.77,2.92-1.77,4.78,0,2.38.9,3.57,2.69,3.57Z"/>
        <path class="cls-2" d="M151.14,22.85c1.44-2.41,3.19-3.62,5.23-3.62,1.16,0,2.02.34,2.59,1.01.56.67.85,1.42.85,2.25,0,.66-.17,1.19-.5,1.6-.34.41-.85.62-1.56.62-.56,0-.98-.13-1.24-.39s-.48-.56-.63-.9c-.16-.34-.34-.65-.55-.9-.21-.26-.56-.39-1.06-.39-.63,0-1.23.37-1.8,1.11-.56.74-1.03,1.73-1.4,2.97-.37,1.24-.55,2.65-.55,4.24v11.99c0,.72.11,1.24.34,1.55.23.31.71.5,1.45.57l1.43.16c.39.07.58.26.58.57,0,.41-.26.62-.79.62h-8.93c-.53,0-.79-.19-.79-.57,0-.31.23-.52.69-.62l.63-.1c.74-.14,1.22-.35,1.45-.65.23-.29.34-.8.34-1.53v-17.37c0-.62-.1-1.04-.29-1.27-.19-.22-.54-.37-1.03-.44l-1.11-.16c-.46-.03-.69-.22-.69-.57,0-.28.28-.47.85-.57,1.09-.17,1.93-.45,2.51-.83.58-.38,1.19-.84,1.82-1.4.32-.31.58-.47.79-.47.32,0,.48.21.48.62v2.79c0,.24.11.39.32.44.21.05.4-.08.58-.39Z"/>
        <path class="cls-2" d="M169.94,46.38c-1.69,0-3.21-.55-4.54-1.65-1.34-1.1-2.4-2.66-3.2-4.68-.79-2.02-1.19-4.35-1.19-7.01s.4-5.12,1.22-7.19c.81-2.07,1.92-3.69,3.33-4.86,1.41-1.17,2.98-1.76,4.7-1.76,2.08,0,3.76.84,5.05,2.51,1.29,1.67,1.93,4.39,1.93,8.14,0,1.14-.44,1.71-1.32,1.71h-10.04c-.71,0-1.06.4-1.06,1.19,0,3.65.55,6.39,1.64,8.22,1.09,1.83,2.48,2.74,4.17,2.74,1.34,0,2.43-.47,3.28-1.4s1.53-2.5,2.06-4.7c.11-.38.33-.57.69-.57.42,0,.58.34.48,1.03-.56,3.07-1.46,5.21-2.69,6.44-1.23,1.22-2.73,1.84-4.49,1.84ZM165.72,30.3h5.34c1.69,0,2.54-.86,2.54-2.59,0-2.24-.28-4-.85-5.27-.56-1.28-1.41-1.91-2.54-1.91-1.37,0-2.53.78-3.46,2.33-.93,1.55-1.54,3.76-1.82,6.62-.07.55.19.83.79.83Z"/>
        <path class="cls-2" d="M397.75,108.42c-1.48,0-2.69-.46-3.65-1.37-.95-.91-1.43-2.13-1.43-3.64s.48-2.89,1.43-4.21c.95-1.33,2.25-2.52,3.91-3.59,1.66-1.07,3.54-1.93,5.65-2.59.46-.14.69-.43.69-.88v-4.7c0-1.65-.26-2.83-.79-3.54-.53-.71-1.25-1.06-2.17-1.06s-1.68.39-2.4,1.16c-.72.78-1.24,2.08-1.56,3.9-.18,1.1-.55,1.9-1.14,2.4-.58.5-1.17.75-1.77.75-.99,0-1.48-.48-1.48-1.45s.29-1.99.87-2.97c.58-.98,1.35-1.88,2.3-2.69.95-.81,1.99-1.46,3.12-1.94,1.13-.48,2.25-.72,3.38-.72,3.49,0,5.23,1.98,5.23,5.95v15.82c0,1.45.37,2.17,1.11,2.17.46,0,.88-.3,1.27-.9.39-.6.58-1.63.58-3.08,0-.55.23-.83.69-.83.42,0,.63.29.63.88,0,2.52-.45,4.33-1.35,5.45-.9,1.12-1.91,1.68-3.04,1.68-.85,0-1.51-.34-2.01-1.01-.49-.67-.83-1.47-1-2.4-.04-.34-.18-.53-.45-.54-.26-.02-.52.15-.77.49-.85,1.14-1.71,2-2.59,2.58-.88.59-1.97.88-3.28.88ZM399.18,106.04c.92,0,1.76-.32,2.54-.96.77-.64,1.41-1.49,1.9-2.56.49-1.07.74-2.27.74-3.62v-3.77c0-.65-.37-.84-1.11-.57-2.15.76-3.81,1.8-4.99,3.13-1.18,1.33-1.77,2.92-1.77,4.78,0,2.38.9,3.57,2.69,3.57Z"/>
        <path class="cls-2" d="M420.62,84.89c1.44-2.41,3.19-3.62,5.23-3.62,1.16,0,2.02.34,2.59,1.01.56.67.85,1.42.85,2.25,0,.66-.17,1.19-.5,1.6-.33.41-.85.62-1.56.62-.56,0-.98-.13-1.24-.39-.26-.26-.48-.56-.63-.9-.16-.34-.34-.65-.55-.9-.21-.26-.56-.39-1.06-.39-.63,0-1.23.37-1.8,1.11-.56.74-1.03,1.73-1.4,2.97-.37,1.24-.55,2.65-.55,4.24v11.99c0,.72.11,1.24.34,1.55.23.31.71.5,1.45.57l1.43.16c.39.07.58.26.58.57,0,.41-.26.62-.79.62h-8.93c-.53,0-.79-.19-.79-.57,0-.31.23-.52.69-.62l.63-.1c.74-.14,1.22-.35,1.45-.65.23-.29.34-.8.34-1.53v-17.37c0-.62-.1-1.04-.29-1.27-.19-.22-.54-.37-1.03-.44l-1.11-.16c-.46-.03-.69-.22-.69-.57,0-.28.28-.47.85-.57,1.09-.17,1.93-.45,2.51-.83.58-.38,1.19-.84,1.82-1.4.32-.31.58-.47.79-.47.32,0,.48.21.48.62v2.79c0,.24.11.39.32.44s.4-.08.58-.39Z"/>
        <path class="cls-2" d="M439.43,108.42c-1.69,0-3.21-.55-4.54-1.65-1.34-1.1-2.4-2.66-3.2-4.68-.79-2.02-1.19-4.35-1.19-7.01s.4-5.12,1.22-7.19c.81-2.07,1.92-3.69,3.33-4.86,1.41-1.17,2.98-1.76,4.7-1.76,2.08,0,3.76.84,5.05,2.51,1.29,1.67,1.93,4.39,1.93,8.14,0,1.14-.44,1.71-1.32,1.71h-10.04c-.71,0-1.06.4-1.06,1.19,0,3.65.55,6.39,1.64,8.22,1.09,1.83,2.48,2.74,4.17,2.74,1.34,0,2.43-.47,3.28-1.4s1.53-2.5,2.06-4.7c.11-.38.33-.57.69-.57.42,0,.58.34.48,1.03-.56,3.07-1.46,5.21-2.69,6.44-1.23,1.22-2.73,1.84-4.49,1.84ZM435.21,92.34h5.34c1.69,0,2.54-.86,2.54-2.59,0-2.24-.28-4-.85-5.27-.56-1.28-1.41-1.91-2.54-1.91-1.37,0-2.53.78-3.46,2.33-.93,1.55-1.54,3.76-1.82,6.62-.07.55.19.83.79.83Z"/>
      </g>
      <g>
        <path class="cls-1" d="M183.84,138.47c-3.74,0-6.65-1.23-8.72-3.69-2.07-2.46-3.1-5.46-3.1-9,0-2.65.54-4.64,1.62-5.97,1.08-1.33,2.27-1.99,3.55-1.99,1.87,0,3.2.63,3.99,1.89.79,1.26,1.38,2.75,1.77,4.45.39,1.7,1.01,3.19,1.85,4.45.84,1.26,2.19,1.89,4.06,1.89,3.64,0,7.24-1.86,10.78-5.59,3.55-3.73,6.45-8.84,8.72-15.34,2.26-6.51,3.25-13.79,2.95-21.88l-2.22-68c-.1-3.28-.54-5.59-1.33-6.91-.79-1.33-1.77-1.99-2.95-1.99-2.17,0-4.24,1.68-6.2,5.02-1.97,3.35-3.6,9.69-4.87,19.04-.3,1.64-.94,2.46-1.92,2.46-1.38,0-1.92-1.14-1.62-3.41,1.18-8.71,2.83-15.53,4.95-20.46,2.12-4.92,4.38-8.4,6.8-10.42,2.41-2.02,4.65-3.03,6.72-3.03,3.05,0,5.47,1.36,7.24,4.07,1.77,2.72,2.76,7.36,2.95,13.92l2.07,72.74c0,.88.22,1.42.66,1.61s.86-.09,1.26-.85c3.45-6.19,6.57-12.6,9.38-19.23,2.81-6.63,5.05-13.16,6.72-19.6,1.67-6.44,2.51-12.37,2.51-17.81s-.44-9.5-1.33-12.6c-.89-3.09-1.8-5.71-2.73-7.86-.94-2.15-1.4-4.48-1.4-7.01,0-4.92,1.67-7.39,5.02-7.39,4.73,0,7.09,6.69,7.09,20.08,0,7.32-.99,15.31-2.95,23.96-1.97,8.65-4.65,17.43-8.05,26.33-3.4,8.9-7.29,17.4-11.67,25.48-4.38,8.08-8.96,15.34-13.74,21.78-4.78,6.44-9.55,11.52-14.33,15.25-4.78,3.72-9.28,5.59-13.52,5.59Z"/>
        <path class="cls-1" d="M270.55,99.44c-6.11,0-10.93-3.25-14.48-9.76-3.55-6.5-5.32-15.31-5.32-26.42,0-8.21,1.03-16.1,3.1-23.68,2.07-7.58,4.8-14.33,8.2-20.27,3.4-5.93,7.19-10.64,11.37-14.11,4.18-3.47,8.39-5.21,12.63-5.21,6.11,0,10.93,3.22,14.48,9.66,3.55,6.44,5.32,15.28,5.32,26.52,0,8.21-1.03,16.1-3.1,23.68-2.07,7.58-4.8,14.33-8.2,20.27-3.4,5.94-7.19,10.64-11.37,14.11-4.19,3.47-8.4,5.21-12.63,5.21ZM270.26,94.9c3.15,0,6.23-1.96,9.23-5.87,3-3.91,5.74-9.09,8.2-15.53,2.46-6.44,4.43-13.61,5.91-21.5,1.48-7.89,2.22-15.82,2.22-23.77,0-15.78-3.2-23.68-9.6-23.68-3.05,0-6.11,1.93-9.16,5.78-3.05,3.85-5.79,9-8.2,15.44-2.41,6.44-4.36,13.61-5.83,21.5-1.48,7.89-2.22,15.82-2.22,23.77,0,15.91,3.15,23.87,9.45,23.87Z"/>
        <path class="cls-1" d="M325.94,99.44c-3.64,0-6.13-2.11-7.46-6.35-1.33-4.23-1.26-9.82.22-16.76l11.67-54.93c.79-3.66.98-6.5.59-8.52-.39-2.02-1.28-3.03-2.66-3.03-2.27,0-4.56,2.21-6.87,6.63-2.32,4.42-4.31,10.55-5.98,18.37-.3,1.39-.94,2.08-1.92,2.08-1.38,0-1.82-1.26-1.33-3.79,2.26-10.61,5.24-18.78,8.94-24.53,3.69-5.74,7.76-8.62,12.19-8.62,3.55,0,5.91,2.08,7.09,6.25,1.18,4.17.98,9.85-.59,17.05l-11.82,54.93c-1.87,8.71-1.23,13.07,1.92,13.07,1.97,0,4.23-1.7,6.79-5.11,2.56-3.41,5.24-8.08,8.05-14.02,2.81-5.93,5.59-12.69,8.35-20.27,2.76-7.58,5.27-15.53,7.53-23.87,2.26-8.33,4.14-16.6,5.61-24.81.3-1.39.98-2.08,2.07-2.08h5.91c1.38,0,1.92.82,1.62,2.46l-13.89,76.15c-1.08,5.94-.25,8.9,2.51,8.9,4.14,0,8.47-8.02,13-24.06.39-1.64,1.08-2.46,2.07-2.46.59,0,1.01.32,1.26.95.24.63.22,1.45-.07,2.46-2.66,10.73-5.81,19.07-9.45,25-3.64,5.94-7.49,8.9-11.52,8.9-7.09,0-9.45-6.63-7.09-19.89l3.84-21.03c.2-.88.07-1.39-.37-1.52-.44-.12-.81.19-1.11.95-5.71,15.15-10.98,25.86-15.81,32.11-4.83,6.25-9.26,9.38-13.29,9.38Z"/>
      </g>
      <g>
        <path class="cls-2" d="M12.25,112.73c-2.87,0-5.07-.84-6.61-2.52-1.54-1.68-1.82-3.96-.84-6.85l8.39-23.77c.91-2.47.35-3.7-1.68-3.7-1.47,0-2.92.79-4.35,2.36-1.43,1.57-2.99,4.15-4.67,7.72-.28.63-.77.94-1.47.94-.35,0-.63-.12-.84-.35-.21-.24-.25-.54-.1-.91,4.05-9.5,9.12-14.25,15.21-14.25,2.38,0,3.98.74,4.82,2.2.84,1.47.8,3.49-.1,6.06l-8.81,25.11c-.63,1.78-.67,3.1-.1,3.94.56.84,1.4,1.26,2.52,1.26,3.42,0,7.25-3.16,11.48-9.49,4.23-6.32,7.95-15.57,11.17-27.75.21-.58.7-.87,1.47-.87h4.09c.98,0,1.36.34,1.15,1.02l-8.39,31.88c-.49,1.73-.44,3.03.16,3.9.59.87,1.55,1.3,2.88,1.3,2.03,0,4.09-.73,6.19-2.2,2.1-1.47,4-3.39,5.72-5.75,1.71-2.36,3.09-4.96,4.14-7.79s1.57-5.62,1.57-8.34c0-2.2-.23-3.95-.68-5.24-.46-1.29-.93-2.37-1.42-3.27-.49-.89-.73-1.86-.73-2.91,0-2.05,1.19-3.07,3.57-3.07,1.68,0,2.76.7,3.25,2.09.49,1.39.73,3.48.73,6.26,0,3.99-.65,7.94-1.94,11.85-1.29,3.91-3.04,7.45-5.24,10.63-2.2,3.18-4.72,5.72-7.55,7.64-2.83,1.92-5.82,2.87-8.97,2.87s-5.31-.88-6.92-2.64c-1.61-1.76-1.96-4.32-1.05-7.68.14-.37.05-.58-.26-.63-.31-.05-.58.08-.79.39-1.96,2.94-4.16,5.43-6.61,7.48-2.45,2.05-5.24,3.07-8.39,3.07Z"/>
        <path class="cls-2" d="M95.51,112.73c-2.52,0-4.4-.79-5.66-2.36-1.26-1.57-1.33-4.01-.21-7.32l8.07-22.83c.77-2.05.89-3.46.37-4.25-.52-.79-1.28-1.18-2.25-1.18-1.54,0-3.27.72-5.19,2.16-1.92,1.44-3.92,3.41-5.98,5.9-2.06,2.49-4.06,5.3-5.98,8.42-1.92,3.12-3.69,6.4-5.3,9.84-1.61,3.44-2.9,6.78-3.88,10.04-.21.58-.7.87-1.47.87h-4.4c-.98,0-1.36-.34-1.15-1.02l15.31-49.36c.35-.94.37-1.6.05-1.97-.31-.37-.96-.58-1.94-.63l-3.15-.24c-1.05-.05-1.5-.39-1.36-1.02.14-.47.63-.76,1.47-.87,2.52-.31,4.75-.69,6.71-1.14,1.96-.45,3.53-1.04,4.72-1.77.56-.31,1.08-.47,1.57-.47.84,0,1.15.39.94,1.18l-10.28,33.46c-.07.37.03.58.31.63.28.05.52-.08.73-.39,2.8-4.3,5.45-7.69,7.97-10.16,2.52-2.47,4.88-4.22,7.08-5.27,2.2-1.05,4.21-1.57,6.03-1.57,2.59,0,4.47.79,5.66,2.36,1.19,1.57,1.19,3.99,0,7.24l-7.97,22.83c-.49,1.47-.52,2.57-.1,3.31.42.74,1.19,1.1,2.31,1.1,1.4,0,2.76-.7,4.09-2.09,1.33-1.39,2.76-4.03,4.3-7.91.21-.58.66-.87,1.36-.87.56,0,.89.16,1,.47s.09.68-.05,1.1c-1.33,3.57-2.76,6.36-4.3,8.38-1.54,2.02-3.09,3.42-4.67,4.21s-3.16,1.18-4.77,1.18Z"/>
        <path class="cls-2" d="M125.18,112.73c-3.71,0-6.68-1.09-8.91-3.27-2.24-2.18-3.36-5.26-3.36-9.25,0-3.46.82-6.9,2.46-10.31,1.64-3.41,3.79-6.51,6.45-9.29,2.66-2.78,5.57-5.01,8.76-6.69,3.18-1.68,6.27-2.52,9.28-2.52,3.29,0,5.64.59,7.08,1.77,1.43,1.18,2.15,2.77,2.15,4.76,0,2.36-1.1,4.71-3.3,7.05-2.2,2.34-5.28,4.42-9.23,6.26-3.95,1.84-8.58,3.2-13.89,4.09-1.54.26-2.34.92-2.41,1.97-.07.37-.1.75-.1,1.14v1.14c0,2.99.68,5.25,2.04,6.77,1.36,1.52,3.23,2.28,5.61,2.28,2.66,0,5.23-.92,7.71-2.76,2.48-1.84,4.56-4.43,6.24-7.79.21-.47.63-.71,1.26-.71.42,0,.68.13.79.39.1.26.09.58-.05.94-2.24,4.62-4.95,8.11-8.13,10.47-3.18,2.36-6.66,3.54-10.43,3.54ZM121.3,92.34c-.14.37-.05.67.26.91s.72.3,1.21.2c4.33-.89,7.97-2.24,10.91-4.05,2.94-1.81,5.15-3.84,6.66-6.1,1.5-2.26,2.25-4.46,2.25-6.61s-1.15-3.31-3.46-3.31c-2.03,0-4.23.89-6.61,2.68-2.38,1.79-4.58,4.12-6.61,7.01-2.03,2.89-3.57,5.98-4.61,9.29Z"/>
        <path class="cls-2" d="M153.71,111l9.96-31.41c.35-1.15.4-2.06.16-2.72-.25-.66-.89-.98-1.94-.98-1.26,0-2.64.7-4.14,2.09-1.5,1.39-3.2,4.03-5.09,7.91-.28.68-.77,1.02-1.47,1.02-1.05,0-1.33-.47-.84-1.42,1.54-3.62,3.16-6.46,4.88-8.5,1.71-2.05,3.44-3.49,5.19-4.33,1.75-.84,3.36-1.26,4.82-1.26,2.31,0,3.95.64,4.93,1.93.98,1.29,1.01,3.4.1,6.34l-2.62,8.5c-.07.37.03.58.31.63.28.05.52-.08.73-.39,2.73-4.25,5.35-7.62,7.86-10.12,2.52-2.49,4.89-4.26,7.13-5.31,2.24-1.05,4.26-1.57,6.08-1.57,2.59,0,4.47.79,5.66,2.36,1.19,1.57,1.19,3.99,0,7.24l-7.97,22.83c-.49,1.47-.52,2.57-.1,3.31.42.74,1.19,1.1,2.31,1.1,1.4,0,2.78-.7,4.14-2.09,1.36-1.39,2.78-4.03,4.25-7.91.21-.58.66-.87,1.36-.87.56,0,.89.16,1,.47.1.31.09.68-.05,1.1-1.33,3.57-2.76,6.36-4.3,8.38-1.54,2.02-3.09,3.42-4.67,4.21s-3.16,1.18-4.77,1.18c-2.52,0-4.4-.79-5.66-2.36s-1.33-4.01-.21-7.32l8.07-22.83c.77-2.05.89-3.46.37-4.25s-1.28-1.18-2.25-1.18c-1.54,0-3.29.72-5.24,2.16-1.96,1.44-3.95,3.41-5.98,5.9-2.03,2.49-4.02,5.31-5.98,8.46-1.96,3.15-3.72,6.43-5.3,9.84-1.57,3.41-2.85,6.74-3.83,10-.21.58-.7.87-1.47.87h-4.3c-.98,0-1.36-.34-1.15-1.02Z"/>
      </g>
      <g>
        <path class="cls-2" d="M459.92,105.91c-.78,0-1.17-.43-1.17-1.31,0-.71.34-1.19,1.01-1.42l.93-.24c1.09-.32,1.8-.81,2.14-1.48.34-.67.51-1.84.51-3.5v-39.9c0-1.42-.14-2.39-.43-2.91-.29-.51-.79-.85-1.52-1.01l-1.63-.36c-.67-.08-1.01-.51-1.01-1.31,0-.63.41-1.07,1.24-1.31,1.61-.4,2.84-1.03,3.69-1.9.86-.87,1.75-1.94,2.68-3.21.47-.71.86-1.07,1.17-1.07.47,0,.7.47.7,1.42v5.34c0,.71.17,1.17.51,1.37.34.2.71-.02,1.13-.65,2.07-3.01,3.9-5.06,5.48-6.17,1.58-1.11,3.25-1.66,5.02-1.66,2.33,0,4.2,1.25,5.6,3.74,1.4,2.49,2.1,6.16,2.1,10.98v38.59c0,1.66.17,2.83.51,3.5.34.67,1.05,1.13,2.14,1.37l1.71.36c.57.16.86.63.86,1.42,0,.87-.31,1.31-.93,1.31h-13.07c-.73,0-1.09-.43-1.09-1.31,0-.79.28-1.27.86-1.42l1.09-.24c1.09-.24,1.8-.71,2.14-1.42.34-.71.51-1.9.51-3.56v-37.28c0-3.88-.47-6.61-1.4-8.19-.93-1.58-2.26-2.37-3.97-2.37s-3.15.73-4.47,2.2c-1.32,1.47-2.37,3.4-3.15,5.82-.78,2.42-1.17,5.09-1.17,8.01v31.82c0,1.66.17,2.85.51,3.56.34.71,1.05,1.15,2.14,1.31l2.1.36c.57.16.86.59.86,1.31,0,.95-.39,1.42-1.17,1.42h-13.14Z"/>
        <path class="cls-2" d="M509.92,106.98c-2.64,0-5.02-1.37-7.12-4.1-2.1-2.73-3.77-6.47-5.02-11.22-1.24-4.75-1.87-10.05-1.87-15.91s.62-11.12,1.87-15.79c1.24-4.67,2.93-8.39,5.06-11.16,2.13-2.77,4.48-4.16,7.08-4.16s5.02,1.39,7.12,4.16c2.1,2.77,3.77,6.49,5.02,11.16,1.24,4.67,1.87,9.93,1.87,15.79s-.61,11.16-1.83,15.91c-1.22,4.75-2.89,8.49-5.02,11.22-2.13,2.73-4.51,4.1-7.16,4.1ZM509.92,104.01c5.39,0,8.09-9.42,8.09-28.26s-2.7-28.14-8.09-28.14-8.09,9.38-8.09,28.14,2.7,28.26,8.09,28.26Z"/>
        <path class="cls-2" d="M537.3,106.98c-1.82,0-3.31-.97-4.47-2.91-1.17-1.94-1.75-5.12-1.75-9.56v-44.41c0-.95-.31-1.42-.93-1.42h-2.26c-.83,0-1.24-.47-1.24-1.42,0-.63.23-1.19.7-1.66,1.71-1.82,3.08-3.78,4.12-5.88,1.04-2.1,1.94-4.97,2.72-8.61.36-1.66.8-2.49,1.32-2.49.57,0,.86.63.86,1.9v13.18c0,1.11.36,1.66,1.09,1.66h5.06c.83,0,1.24.55,1.24,1.66s-.42,1.66-1.24,1.66h-5.06c-.73,0-1.09.55-1.09,1.66v44.29c0,1.74.18,3.11.54,4.1.36.99,1.04,1.48,2.02,1.48,1.09,0,1.98-.83,2.68-2.49.7-1.66,1.15-4.35,1.36-8.07.1-1.11.44-1.66,1.01-1.66.62,0,.93.59.93,1.78-.16,6.1-.97,10.49-2.45,13.18-1.48,2.69-3.2,4.04-5.17,4.04Z"/>
      </g>
      <g>
        <path class="cls-3" d="M287.55,134.53c-5.9,8.3-12.21,14.47-18.94,18.49-6.73,4.03-13.77,6.97-21.11,8.83-2.56.62-4.79,1.12-6.68,1.49-1.89.37-3.78.74-5.67,1.12-3.23,6.07-6.28,12.11-9.18,18.12-2.89,6.01-5.78,11.99-8.68,17.93-4.23,8.8-8.07,17.1-11.52,24.9-3.45,7.81-7.18,15.55-11.18,23.23-.78,1.49-1.84,2.63-3.17,3.44-1.34.8-2.89,1.52-4.67,2.14-1.78.62-3.84,1.24-6.18,1.86-2.34.62-4.89,1.49-7.68,2.6-.67.37-1.06.28-1.17-.28-.11-.56.17-.96.83-1.21,2.89-1.24,5.34-2.45,7.34-3.62,2-1.18,3.81-2.57,5.42-4.18,1.61-1.61,3.14-3.53,4.59-5.76,1.45-2.23,3.12-5.02,5.01-8.36,1.89-3.47,4.2-7.78,6.93-12.92,2.73-5.14,5.76-10.81,9.1-17,3.34-6.2,6.84-12.79,10.51-19.79,3.67-7,7.4-14.03,11.18-21.09-.67-.25-1-.93-1-2.04,0-.74.36-1.18,1.08-1.3.72-.12,1.31-.25,1.75-.37l7.68-13.94c3.56-6.44,7.12-13.13,10.68-20.07,3.56-6.94,7.23-13.13,11.02-18.58.44-.49,1.06-.87,1.84-1.12.22-.12.67-.25,1.34-.37.67-.12,1.34-.25,2-.37.67-.12,1.28-.21,1.84-.28.56-.06.89-.09,1-.09.33,0,.5.12.5.37,0,.37-.22.81-.67,1.3-2.34,2.35-4.4,4.62-6.18,6.78-1.78,2.17-3.45,4.27-5.01,6.32-1.56,2.04-3.03,4.12-4.42,6.23-1.39,2.11-2.81,4.4-4.26,6.88,1.11-1.36,2.34-2.79,3.67-4.27,1.34-1.49,2.67-2.85,4.01-4.09,1.34-1.24,2.67-2.26,4.01-3.07,1.34-.8,2.56-1.21,3.67-1.21s2.03.37,2.75,1.12c.72.74,1.08,1.98,1.08,3.72,0,1.24-.47,3.16-1.42,5.76-.95,2.6-2.56,5.51-4.84,8.73-2.28,3.22-5.31,6.57-9.1,10.03-3.78,3.47-8.51,6.69-14.19,9.66,3-.37,6.37-.96,10.1-1.77,3.73-.8,7.59-2.17,11.6-4.09,4.01-1.92,8.01-4.52,12.02-7.81,4.01-3.28,7.79-7.53,11.35-12.73.11-.25.31-.34.58-.28.28.06.42.4.42,1.02ZM264.18,129.7c0-.49-.08-1.11-.25-1.86s-.75-1.12-1.75-1.12c-.56,0-1.36.34-2.42,1.02-1.06.68-2.25,1.61-3.59,2.79-1.34,1.18-2.73,2.63-4.17,4.37-1.45,1.74-2.84,3.66-4.17,5.76-1.89,2.97-3.73,6.16-5.51,9.57-1.78,3.41-3.56,6.91-5.34,10.5,3.67-1.12,7.15-2.97,10.43-5.58,3.28-2.6,6.17-5.45,8.68-8.55,2.5-3.1,4.48-6.19,5.92-9.29,1.44-3.1,2.17-5.64,2.17-7.62Z"/>
        <path class="cls-3" d="M317.76,141.59c-1.89,2.6-4.15,5.3-6.76,8.08-2.62,2.79-5.45,5.33-8.51,7.62-3.06,2.29-6.23,4.15-9.51,5.58-3.28,1.42-6.54,2.14-9.76,2.14-5.23,0-7.84-2.6-7.84-7.81,0-3.47.81-7.22,2.42-11.24,1.61-4.02,3.7-7.74,6.26-11.15,2.56-3.41,5.37-6.25,8.43-8.55,3.06-2.29,5.98-3.44,8.76-3.44,1.56,0,2.64.31,3.25.93.61.62.92,1.43.92,2.42,0,1.49-.42,3.1-1.25,4.83-.83,1.74-2.09,3.38-3.75,4.92-1.67,1.55-3.78,2.85-6.34,3.9-2.56,1.05-5.62,1.58-9.18,1.58-.56,1.11-1.17,2.88-1.84,5.3s-1,4.86-1,7.34c0,5.08,2.06,7.62,6.17,7.62,2.56,0,5.2-.68,7.93-2.04,2.73-1.36,5.37-3.07,7.93-5.11,2.56-2.04,4.92-4.27,7.09-6.69,2.17-2.42,3.98-4.68,5.42-6.78.22-.25.47-.31.75-.19.28.12.42.37.42.74ZM300.23,127.1c0-1.61-.73-2.42-2.17-2.42-1.11,0-2.25.46-3.42,1.39-1.17.93-2.31,2.14-3.42,3.62-1.11,1.49-2.17,3.1-3.17,4.83-1,1.74-1.84,3.41-2.5,5.02.22.12.61.22,1.17.28.56.06,1,.09,1.34.09,3.23,0,6.06-1.27,8.51-3.81,2.45-2.54,3.67-5.54,3.67-9.01Z"/>
        <path class="cls-3" d="M346.96,125.8c-.67.87-1.36,1.92-2.09,3.16-.73,1.24-1.2,2.17-1.42,2.79-.11.37-.33.56-.67.56-.11,0-.28-.19-.5-.56-.22-.37-.53-.77-.92-1.21-.39-.43-.92-.84-1.59-1.21-.67-.37-1.61-.56-2.84-.56-1.45,0-3.06.56-4.84,1.67-1.78,1.11-3.34,2.35-4.67,3.72-2.12,1.98-3.98,4.15-5.59,6.5-1.61,2.36-3.14,4.8-4.59,7.34-1.45,2.54-2.84,5.14-4.17,7.81-1.34,2.67-2.78,5.36-4.34,8.08-.11.37-.45.56-1,.56-.22,0-.7-.37-1.42-1.12-.73-.74-1.08-1.3-1.08-1.67,0-.74.39-1.86,1.17-3.35,1.78-3.47,3.59-6.97,5.42-10.5,1.84-3.53,3.56-6.84,5.17-9.94,1.61-3.1,3.03-5.79,4.26-8.08,1.22-2.29,2.06-4,2.5-5.11.56-1.12.94-1.67,1.17-1.67s.78.31,1.67.93c.89.62,1.34,1.49,1.34,2.6,0,.37-.2.99-.58,1.86-.39.87-.83,1.77-1.34,2.69-.5.93-.98,1.83-1.42,2.69-.45.87-.78,1.49-1,1.86-.33.62-.39.93-.17.93s.5-.19.83-.56c1.11-1.24,2.47-2.6,4.09-4.09,1.61-1.49,3.31-2.88,5.09-4.18,1.78-1.3,3.53-2.38,5.26-3.25,1.72-.87,3.25-1.3,4.59-1.3,1,0,1.86.28,2.59.84.72.56,1.08,1.15,1.08,1.77Z"/>
        <path class="cls-3" d="M446.77,30.84c0,.5-.08,1.36-.25,2.6-.17,1.24-.33,2.6-.5,4.09s-.33,2.97-.5,4.46c-.17,1.49-.25,2.6-.25,3.34-.22.25-.5.37-.83.37-.22,0-.45-.12-.67-.37.22-.99.36-1.86.42-2.6.05-.74.08-1.49.08-2.23,0-2.48-.92-4.4-2.75-5.76-1.84-1.36-4.42-2.04-7.76-2.04-2.34,0-4.76.44-7.26,1.3-2.5.87-5.06,2.42-7.68,4.65-2.62,2.23-5.34,5.2-8.18,8.92-2.84,3.72-5.76,8.43-8.76,14.12-1.67,3.22-3.73,7.37-6.18,12.45-2.45,5.08-5.06,10.5-7.84,16.26-2.78,5.76-5.56,11.65-8.34,17.65-2.78,6.01-5.34,11.61-7.68,16.82,1,0,2.67-.03,5.01-.09,2.34-.06,4.73-.09,7.18-.09h10.85c.56.37.72.99.5,1.86h-3.34c-1.78,0-3.9.03-6.34.09-2.45.06-4.98.12-7.59.19-2.62.06-4.98.09-7.09.09-3.67,7.93-7.54,15.89-11.6,23.88-4.06,7.99-8.12,15.7-12.18,23.14-4.06,7.43-8.07,14.34-12.02,20.72-3.95,6.38-7.59,11.99-10.93,16.82-8.34,11.89-16.27,21.96-23.78,30.2-7.51,8.24-14.66,14.93-21.45,20.07-6.79,5.14-13.16,8.86-19.11,11.15-5.95,2.29-11.6,3.44-16.94,3.44-1.56,0-3.25-.19-5.09-.56-1.84-.37-3.61-1.12-5.34-2.23-1.72-1.12-3.25-2.69-4.59-4.74-1.34-2.04-2.34-4.74-3-8.08,0-.99.11-1.43.33-1.3.22.12.45.49.67,1.11.11.87.56,2.01,1.34,3.44.78,1.42,1.92,2.82,3.42,4.18,1.5,1.36,3.37,2.51,5.59,3.44,2.23.93,4.9,1.39,8.01,1.39,5.01-.12,10.43-1.15,16.27-3.07,5.84-1.92,11.99-5.3,18.44-10.13,6.45-4.83,13.21-11.31,20.28-19.42,7.07-8.12,14.38-18.37,21.95-30.76,4.01-6.57,7.98-13.6,11.93-21.09,3.95-7.5,7.79-14.93,11.52-22.3,3.73-7.37,7.23-14.46,10.51-21.28,3.28-6.81,6.26-12.76,8.93-17.84-4.79.37-8.57.74-11.35,1.11-2.78.37-5.01.96-6.68,1.77-1.67.81-2.98,1.98-3.92,3.53-.95,1.55-2.03,3.69-3.25,6.41l-.5-.19c1.56-4.09,3.11-7.15,4.67-9.2,1.56-2.04,3-3.31,4.34-3.81.89-.25,2.09-.49,3.59-.74,1.5-.25,3.11-.43,4.84-.56,1.72-.12,3.42-.25,5.09-.37,1.67-.12,3.11-.19,4.34-.19,5.56-11.4,10.93-21.96,16.11-31.68,5.17-9.72,10.54-19.23,16.11-28.53,3-5.08,6.23-10,9.68-14.77,3.45-4.77,6.95-8.98,10.51-12.64,3.56-3.65,7.09-6.57,10.6-8.73,3.5-2.17,6.87-3.25,10.1-3.25,2.22,0,4.17.56,5.84,1.67s2.5,2.42,2.5,3.9Z"/>
        <path class="cls-3" d="M434.08,132.12c-1.89,2.85-4.2,5.42-6.93,7.71-2.73,2.29-5.82,3.44-9.26,3.44-1.89,0-3.75-.53-5.59-1.58-1.84-1.05-3.31-2.63-4.42-4.74-.78,1.98-1.78,4.25-3,6.78-1.23,2.54-2.67,5.08-4.34,7.62-1.67,2.54-3.53,4.86-5.59,6.97-2.06,2.11-4.26,3.84-6.59,5.2-2,.99-3.67,1.49-5.01,1.49-4.01,0-6.01-1.98-6.01-5.95,0-2.23.36-4.52,1.08-6.88.72-2.35,1.64-4.65,2.75-6.88,1.11-2.23,2.31-4.34,3.59-6.32,1.28-1.98,2.47-3.59,3.59-4.83,2.34-2.85,5.01-5.26,8.01-7.25,3-1.98,6.23-3.16,9.68-3.53.22-.99.56-2.14,1-3.44.44-1.3,1.22-2.07,2.34-2.32.56-.12,1.11-.25,1.67-.37.56-.12,1.06-.31,1.5-.56.33-.25.67-.28,1-.09.33.19.39.53.17,1.02-.78,1.36-1.36,3.1-1.75,5.2-.39,2.11-.58,4.4-.58,6.88,0,3.47.58,6.32,1.75,8.55,1.17,2.23,3.2,3.34,6.09,3.34s5.51-1.05,7.84-3.16c2.34-2.11,4.28-4.4,5.84-6.88.22-.62.58-.8,1.08-.56.5.25.53.62.08,1.11ZM406.55,133.42c-.22-1.12-.39-2.42-.5-3.9-.11-1.49-.17-2.91-.17-4.27,0-.62-.22-.93-.67-.93-1.23,0-2.5.46-3.84,1.39s-2.67,2.17-4.01,3.72c-1.34,1.55-2.67,3.32-4.01,5.3-1.34,1.98-2.56,4.03-3.67,6.13-1.45,2.73-2.75,5.67-3.92,8.83-1.17,3.16-1.7,6.16-1.59,9.01,0,.87.14,1.67.42,2.42.28.74.92,1.12,1.92,1.12,1.89,0,3.95-1.18,6.17-3.53,2.22-2.35,4.34-5.11,6.34-8.27,2-3.16,3.7-6.35,5.09-9.57,1.39-3.22,2.2-5.7,2.42-7.43Z"/>
        <path class="cls-3" d="M457.45,125.8c-.67.87-1.36,1.92-2.09,3.16-.73,1.24-1.2,2.17-1.42,2.79-.11.37-.33.56-.67.56-.11,0-.28-.19-.5-.56-.22-.37-.53-.77-.92-1.21-.39-.43-.92-.84-1.59-1.21-.67-.37-1.61-.56-2.84-.56-1.45,0-3.06.56-4.84,1.67-1.78,1.11-3.34,2.35-4.67,3.72-2.12,1.98-3.98,4.15-5.59,6.5-1.61,2.36-3.14,4.8-4.59,7.34-1.45,2.54-2.84,5.14-4.17,7.81-1.34,2.67-2.78,5.36-4.34,8.08-.11.37-.45.56-1,.56-.22,0-.7-.37-1.42-1.12-.73-.74-1.08-1.3-1.08-1.67,0-.74.39-1.86,1.17-3.35,1.78-3.47,3.59-6.97,5.42-10.5,1.84-3.53,3.56-6.84,5.17-9.94,1.61-3.1,3.03-5.79,4.26-8.08,1.22-2.29,2.06-4,2.5-5.11.56-1.12.94-1.67,1.17-1.67s.78.31,1.67.93c.89.62,1.34,1.49,1.34,2.6,0,.37-.2.99-.58,1.86-.39.87-.83,1.77-1.34,2.69-.5.93-.98,1.83-1.42,2.69-.45.87-.78,1.49-1,1.86-.33.62-.39.93-.17.93s.5-.19.83-.56c1.11-1.24,2.47-2.6,4.09-4.09,1.61-1.49,3.31-2.88,5.09-4.18,1.78-1.3,3.53-2.38,5.26-3.25,1.72-.87,3.25-1.3,4.59-1.3,1,0,1.86.28,2.59.84.72.56,1.08,1.15,1.08,1.77Z"/>
        <path class="cls-3" d="M516.03,147.73c-1.56,1.98-3.42,4.21-5.59,6.69-2.17,2.48-4.48,4.83-6.93,7.06-2.45,2.23-4.98,4.09-7.59,5.58-2.62,1.49-5.15,2.23-7.59,2.23-2.23,0-3.78-.5-4.67-1.49-.89-.99-1.34-2.54-1.34-4.65,0-1.36.64-3.59,1.92-6.69,1.28-3.1,2.7-6.32,4.26-9.66,1.56-3.35,2.98-6.53,4.26-9.57,1.28-3.03,1.92-5.17,1.92-6.41,0-.74-.28-1.12-.83-1.12-1.45.87-3.09,2.14-4.92,3.81s-3.65,3.5-5.42,5.48c-1.78,1.98-3.42,3.9-4.92,5.76-1.5,1.86-2.64,3.41-3.42,4.65-.78,1.24-1.56,2.73-2.34,4.46-.78,1.74-1.53,3.41-2.25,5.02-.73,1.61-1.45,2.97-2.17,4.09-.73,1.12-1.36,1.67-1.92,1.67s-1.06-.31-1.5-.93c-.45-.62-.67-1.24-.67-1.86,0-.37.17-1.02.5-1.95.33-.93.94-2.07,1.84-3.44,1.44-2.23,2.75-4.58,3.92-7.06,1.17-2.48,2.17-4.77,3-6.88.83-2.11,1.47-3.9,1.92-5.39.44-1.49.67-2.35.67-2.6,0-.99-.22-1.49-.67-1.49-.67,0-1.81.78-3.42,2.32-1.61,1.55-3.37,3.44-5.26,5.67-1.89,2.23-3.75,4.59-5.59,7.06-1.84,2.48-3.37,4.71-4.59,6.69-1.56,2.6-2.89,4.9-4.01,6.88-1.11,1.98-1.95,2.97-2.5,2.97-.89,0-1.42-.44-1.59-1.3-.17-.87-.25-1.73-.25-2.6,0-.99.22-1.79.67-2.42,3-5.33,5.95-10.78,8.85-16.35,2.89-5.58,5.78-11.09,8.68-16.54.56-1.12,1.17-1.67,1.84-1.67.56,0,1.06.34,1.5,1.02.44.68.67,1.33.67,1.95-.78,2.48-2.12,5.51-4.01,9.11-1.89,3.59-3.56,6.88-5.01,9.85,4.45-5.7,8.18-10,11.18-12.92,3-2.91,5.45-4.37,7.34-4.37,1.22,0,1.84.93,1.84,2.79,0,1.24-.5,3.13-1.5,5.67-1,2.54-1.89,4.62-2.67,6.23-.22.5-.25.71-.08.65.17-.06.36-.21.58-.46,1.34-1.73,2.86-3.56,4.59-5.48,1.72-1.92,3.56-3.75,5.51-5.48,1.95-1.73,3.89-3.35,5.84-4.83,1.95-1.49,3.76-2.66,5.42-3.53,1.67,0,2.5.87,2.5,2.6,0,.37-.06.74-.17,1.11-.11.37-.28.81-.5,1.3-.56,1.37-1.59,3.59-3.09,6.69-1.5,3.1-3.03,6.41-4.59,9.94-1.56,3.53-2.92,6.94-4.09,10.22-1.17,3.28-1.75,5.79-1.75,7.53,0,2.48,1.06,3.72,3.17,3.72,2,0,4.12-.74,6.34-2.23,2.22-1.49,4.45-3.28,6.68-5.39,2.22-2.1,4.28-4.3,6.18-6.6,1.89-2.29,3.5-4.3,4.84-6.04.44-.74.89-1.05,1.34-.93.44.12.33.74-.33,1.86Z"/>
        <path class="cls-3" d="M550.41,139.36c-2.67,3.84-5.73,7.5-9.18,10.96-3.45,3.47-6.62,6.26-9.51,8.36-2.23,1.61-4.51,2.85-6.84,3.72-2.34.87-4.45,1.3-6.34,1.3-.67,0-1.45-.06-2.34-.19-.89-.12-1.7-.43-2.42-.93-.73-.49-1.34-1.14-1.84-1.95-.5-.8-.75-1.89-.75-3.25,0-1.61.56-3.81,1.67-6.6,1.11-2.79,2.42-5.67,3.92-8.64,1.5-2.97,3-5.82,4.51-8.55,1.5-2.72,2.7-4.77,3.59-6.13.56-.99,1.53-1.83,2.92-2.51,1.39-.68,2.31-1.02,2.75-1.02.56,0,.83.19.83.56,0,.25-.08.62-.25,1.12-.17.5-.36.87-.58,1.11-1.45,2.48-2.92,5.2-4.42,8.18-1.5,2.97-2.87,5.85-4.09,8.64-1.23,2.79-2.2,5.36-2.92,7.71-.72,2.35-1.08,4.21-1.08,5.58,0,1.49.36,2.57,1.08,3.25.72.68,1.7,1.02,2.92,1.02,2.22,0,4.67-.84,7.34-2.51s5.31-3.68,7.93-6.04c2.61-2.35,5.03-4.83,7.26-7.43,2.22-2.6,3.95-4.83,5.17-6.69.56-.62.86-.77.92-.46.05.31-.03.78-.25,1.39ZM535.61,118.13c0,1.01-.4,2.03-1.19,3.04-.8,1.01-1.69,1.52-2.67,1.52-.91,0-1.36-.51-1.36-1.52,0-1.1.36-2.15,1.08-3.17.72-1.01,1.61-1.52,2.67-1.52.98,0,1.48.55,1.48,1.65Z"/>
        <path class="cls-3" d="M594.3,139.74c-2,3.1-4.31,6.23-6.93,9.38-2.62,3.16-5.4,5.98-8.34,8.46-2.95,2.48-5.95,4.52-9.01,6.13-3.06,1.61-6.04,2.42-8.93,2.42-1.34,0-2.56-.22-3.67-.65-1.11-.44-1.67-1.52-1.67-3.25s.56-3.93,1.67-6.6c1.11-2.66,2.42-5.48,3.92-8.46,1.5-2.97,3.06-6.01,4.67-9.11,1.61-3.1,2.92-5.95,3.92-8.55.22-.62.25-1.14.08-1.58-.17-.43-.53-.46-1.08-.09-1.23.87-2.67,2.04-4.34,3.53s-3.37,3.07-5.09,4.74c-1.73,1.67-3.4,3.38-5.01,5.11-1.61,1.74-2.92,3.28-3.92,4.65-1.78,3.1-3.31,5.95-4.59,8.55-1.28,2.6-2.87,5.51-4.76,8.73-.45.74-.78,1.11-1,1.11-.56,0-1.03-.68-1.42-2.04-.39-1.36-.58-2.23-.58-2.6,0-1.11.69-2.63,2.09-4.55,1.39-1.92,2.92-4.06,4.59-6.41,1.78-3.96,3.61-8.14,5.51-12.54,1.89-4.4,3.51-8.33,4.84-11.8.33-.62.83-.93,1.5-.93s1.28.31,1.84.93c.56.62.83,1.3.83,2.04,0,.5-.81,2.2-2.42,5.11-1.61,2.91-3.2,6.29-4.76,10.13,2.11-2.11,4.42-4.34,6.93-6.69,2.5-2.35,4.9-4.52,7.18-6.5,2.28-1.98,4.28-3.62,6.01-4.92,1.72-1.3,2.92-1.95,3.59-1.95.44,0,.86.28,1.25.84.39.56.58,1.09.58,1.58s-.28,1.24-.83,2.23c-1.23,1.98-2.73,4.52-4.51,7.62-1.78,3.1-3.48,6.29-5.09,9.57-1.61,3.28-2.98,6.41-4.09,9.38-1.11,2.97-1.67,5.33-1.67,7.06,0,1.49.28,2.51.83,3.07.56.56,1.44.84,2.67.84,1.89,0,4.12-.8,6.68-2.42,2.56-1.61,5.2-3.62,7.93-6.04,2.73-2.42,5.31-5.11,7.76-8.08,2.45-2.97,4.45-5.82,6.01-8.55.22-.37.56-.46,1-.28.44.19.39.65-.17,1.39Z"/>
        <path class="cls-3" d="M625.68,114.09c0,1.12-.28,2.23-.83,3.35-5.56,11.52-10.57,21.71-15.02,30.57-4.45,8.86-8.68,17.03-12.68,24.53-4.01,7.49-7.96,14.74-11.85,21.74-3.9,7-8.01,14.46-12.35,22.39-3.56,6.32-7.43,12.23-11.6,17.75-4.17,5.51-8.79,10.28-13.85,14.31-5.06,4.02-10.57,7.18-16.52,9.48-5.95,2.29-12.49,3.44-19.61,3.44-5.23,0-9.54-.78-12.93-2.32-3.39-1.55-6.06-3.62-8.01-6.23-1.95-2.6-3.31-5.58-4.09-8.92-.78-3.35-1.17-6.81-1.17-10.41,0-1.49.11-3.07.33-4.74.22-1.67.5-3.01.83-4,.11-.5.33-.74.67-.74s.5.31.5.93c-.22.87-.44,1.89-.67,3.07-.22,1.18-.33,2.44-.33,3.81,0,4.34.83,8.08,2.5,11.24,1.67,3.16,3.98,5.76,6.93,7.81,2.95,2.04,6.43,3.59,10.43,4.65,4.01,1.05,8.29,1.58,12.85,1.58,4.79,0,9.6-.87,14.44-2.6,4.84-1.74,9.65-4.62,14.44-8.64,4.79-4.03,9.49-9.26,14.1-15.7,4.62-6.44,9.15-14.37,13.6-23.79,2.89-5.95,5.95-12.26,9.18-18.96,3.23-6.69,6.34-13.1,9.35-19.23,3-6.13,5.7-11.64,8.09-16.54,2.39-4.89,4.14-8.46,5.26-10.69-2.23,3.34-4.4,6.5-6.51,9.48-2.12,2.97-4.09,5.58-5.92,7.81-1.84,2.23-3.59,4-5.26,5.3-1.67,1.3-3.17,1.95-4.51,1.95-1,0-1.84-.37-2.5-1.11-.67-.74-1-1.92-1-3.53,0-1.86.69-4.49,2.09-7.9,1.39-3.41,3.23-6.97,5.51-10.69,2.28-3.72,4.87-7.25,7.76-10.59,2.89-3.35,5.84-5.82,8.85-7.43,2.67-1.49,5.34-2.23,8.01-2.23.78,0,1.39.06,1.84.19.89-1.73,1.81-3.47,2.75-5.2.94-1.73,1.92-3.59,2.92-5.57.78-1.61,1.5-2.42,2.17-2.42.44,0,.86.56,1.25,1.67.39,1.11.58,2.17.58,3.16ZM615,125.05c-.33-.12-.78-.19-1.34-.19h-1.17c-1.56,0-3.03.16-4.42.46-1.39.31-2.59.96-3.59,1.95-2.78,2.6-5.17,5.51-7.18,8.73-2,3.22-3.67,6.38-5.01,9.48-1.34,3.1-2.31,5.92-2.92,8.46-.61,2.54-.92,4.37-.92,5.48,0,1.37.33,2.04,1,2.04s2-1.05,4.01-3.16c2-2.11,4.26-4.89,6.76-8.36,2.5-3.47,5.09-7.37,7.76-11.71,2.67-4.34,5.01-8.73,7.01-13.19Z"/>
        <path class="cls-3" d="M637.03,159.06c0,.37-.22.84-.67,1.39-.45.56-1,1.09-1.67,1.58-.67.5-1.36.9-2.09,1.21-.72.31-1.36.46-1.92.46-.45,0-1.14-.43-2.09-1.3-.95-.87-1.42-1.73-1.42-2.6,0-1.36.39-2.69,1.17-4,.78-1.3,2.56-2.63,5.34-4,.78,0,1.17.44,1.17,1.3,0,1.61.36,2.82,1.08,3.62.72.81,1.08,1.58,1.08,2.32ZM678.75,94.02c0,1.12-.14,2.48-.42,4.09-.28,1.61-.95,3.44-2,5.48-1.06,2.04-2.62,4.27-4.67,6.69-2.06,2.42-4.87,5.11-8.43,8.08-3,2.48-5.7,4.59-8.09,6.32-2.39,1.74-4.42,3.28-6.09,4.65-1.67,1.36-2.98,2.63-3.92,3.81-.95,1.18-1.42,2.45-1.42,3.81,0,1.74.31,3.22.92,4.46.61,1.24,1.53,2.48,2.75,3.72,1,.87.94,1.3-.17,1.3-.56-.12-1.17-.21-1.84-.28-.67-.06-1.73.03-3.17.28-1.34-.99-2.17-2.2-2.5-3.62-.33-1.42-.5-2.94-.5-4.55,0-.99.25-1.89.75-2.69.5-.8,1.03-1.46,1.59-1.95.89-.99,2.06-2.07,3.51-3.25,1.44-1.18,3.28-2.63,5.51-4.37,3.11-2.35,6.03-4.58,8.76-6.69,2.73-2.11,5.09-4.24,7.09-6.41,2-2.17,3.56-4.43,4.67-6.78,1.11-2.35,1.67-5.02,1.67-7.99,0-3.35-.78-5.98-2.34-7.9-1.56-1.92-4.45-3.56-8.68-4.92-3.78-1.36-5.98-2.44-6.59-3.25-.61-.8-.58-1.7.08-2.69.89-1.36,1.92-2.76,3.09-4.18,1.17-1.42,1.97-1.95,2.42-1.58-.33.74-.58,1.39-.75,1.95-.17.56-.06,1.15.33,1.77.39.62,1.17,1.24,2.34,1.86,1.17.62,2.92,1.3,5.26,2.04,3.34,1.11,5.98,2.63,7.93,4.55,1.95,1.92,2.92,4.68,2.92,8.27Z"/>
      </g>
    </g>
  </g>
</svg>