<?xml version="1.0" encoding="UTF-8"?>
<svg id="Layer_2" data-name="Layer 2" xmlns="http://www.w3.org/2000/svg" xmlns:xlink="http://www.w3.org/1999/xlink" viewBox="0 0 469.04 524.67">
  <defs>
    <style>
      .cls-1 {
        filter: url(#drop-shadow-1);
      }

      .cls-2 {
        fill: #11110f;
      }
    </style>
    <filter id="drop-shadow-1" x="-8.48" y="-8.66" width="500" height="556" filterUnits="userSpaceOnUse">
      <feOffset dx="7" dy="7"/>
      <feGaussianBlur result="blur" stdDeviation="5"/>
      <feFlood flood-color="#7a0000" flood-opacity=".8"/>
      <feComposite in2="blur" operator="in"/>
      <feComposite in="SourceGraphic"/>
    </filter>
  </defs>
  <g id="Layer_2-2" data-name="Layer 2">
    <g class="cls-1">
      <g>
        <path class="cls-2" d="M81.67,35.4c-10.5,0-19.79.54-27.86,1.62-8.07,1.09-15.17,3.36-21.29,6.82-6.13,3.47-11.62,8.5-16.48,15.1-4.86,6.61-9.33,15.43-13.42,26.47-.39.87-.83,1.14-1.31.81-.49-.32-.93-1.14-1.31-2.44,1.75-5.85,3.79-11.53,6.12-17.05s5.01-10.61,8.02-15.27c3.01-4.65,6.37-8.61,10.06-11.85,3.69-3.25,7.78-5.3,12.25-6.17,4.86-1.08,10.31-1.57,16.33-1.46,6.03.11,12.06.16,18.09.16,5.64,0,11.28.06,16.92.16,5.64.11,11.28.16,16.92.16h12.54c15.55-.21,28-3.14,37.34-8.77,2.92-1.73,5.83-4.33,8.75-7.8,2.92-3.46,4.38-7.25,4.38-11.37,0-1.08-.1-1.84-.29-2.27-.2-.21-.29-.54-.29-.97,0-.86.29-1.3.88-1.3.19,0,.48.22.87.65,2.33,2.82,4.08,5.63,5.25,8.44.58.87.88,2.17.88,3.9,0,1.3-.39,2.82-1.17,4.55-3.31,6.06-8.22,10.39-14.73,12.99-6.52,2.6-14.44,4.12-23.77,4.55-3.31.22-6.81.27-10.5.16-3.7-.11-7-.05-9.92.16-2.73,0-4.77,1.09-6.13,3.25-10.89,18.41-20.96,36.38-30.19,53.92-9.24,17.54-17.65,34-25.23,49.37-1.75,3.68-3.16,7.09-4.23,10.23-1.07,3.14-1.71,6.01-1.9,8.61,0,1.74.19,3.41.58,5.03.39,1.62,1.26,3.03,2.63,4.22,1.36,1.19,3.35,2.17,5.98,2.92,2.62.76,6.08,1.14,10.35,1.14h3.5c1.36,0,2.53-.11,3.5-.32.58.87.29,1.73-.88,2.6-3.31.43-7,.7-11.08.81-4.08.11-7.88.16-11.38.16-2.92,0-5.69-.06-8.31-.16-2.63-.11-4.96-.54-7-1.3-2.04-.76-3.7-1.89-4.96-3.41-1.27-1.51-1.9-3.68-1.9-6.5,0-1.73.39-3.68,1.17-5.85.78-2.16,1.85-4.43,3.21-6.82,5.25-9.53,10.55-19.27,15.9-29.23,5.35-9.96,10.6-19.86,15.75-29.72,5.15-9.85,10.16-19.49,15.02-28.91,4.86-9.42,9.33-18.46,13.42-27.12.97-1.95.48-2.92-1.46-2.92h-9.63Z"/>
        <path class="cls-2" d="M161.6,109.13c-1.17,1.52-2.38,3.36-3.65,5.52-1.27,2.17-2.09,3.79-2.48,4.87-.2.65-.58.97-1.17.97-.2,0-.49-.32-.88-.97-.39-.65-.93-1.35-1.6-2.11-.68-.76-1.6-1.46-2.77-2.11s-2.82-.97-4.96-.97c-2.53,0-5.35.97-8.46,2.92-3.11,1.95-5.83,4.11-8.17,6.5-3.7,3.47-6.96,7.26-9.77,11.37-2.82,4.12-5.5,8.39-8.02,12.83-2.53,4.44-4.96,8.99-7.29,13.64-2.33,4.66-4.86,9.37-7.58,14.13-.2.65-.78.97-1.75.97-.39,0-1.22-.65-2.48-1.95-1.27-1.3-1.9-2.27-1.9-2.92,0-1.3.68-3.25,2.04-5.85,3.11-6.06,6.27-12.18,9.48-18.35,3.21-6.17,6.22-11.96,9.04-17.38,2.82-5.41,5.3-10.12,7.44-14.13,2.14-4,3.6-6.98,4.38-8.93.97-1.95,1.65-2.92,2.04-2.92s1.36.54,2.92,1.62c1.55,1.09,2.33,2.6,2.33,4.55,0,.65-.34,1.73-1.02,3.25-.68,1.52-1.46,3.09-2.33,4.71-.87,1.62-1.7,3.2-2.48,4.71-.78,1.52-1.36,2.6-1.75,3.25-.58,1.09-.68,1.62-.29,1.62s.88-.32,1.46-.97c1.94-2.16,4.32-4.55,7.15-7.15,2.82-2.6,5.78-5.03,8.9-7.31,3.11-2.27,6.17-4.17,9.19-5.68,3.01-1.51,5.69-2.27,8.02-2.27,1.75,0,3.25.49,4.52,1.46,1.26.97,1.9,2,1.9,3.09Z"/>
        <path class="cls-2" d="M251.15,130.89c-4.48,6.06-9.38,12.18-14.73,18.35-5.35,6.17-10.75,11.75-16.19,16.73-5.45,4.98-10.84,8.99-16.19,12.02-5.35,3.03-10.26,4.55-14.73,4.55-3.89,0-6.61-1.09-8.17-3.25-1.56-2.17-2.33-4.87-2.33-8.12,0-3.03.82-7.09,2.48-12.18,1.65-5.09,4.13-10.56,7.44-16.4-2.53,3.68-5.45,7.58-8.75,11.69-3.31,4.12-6.71,7.85-10.21,11.21-3.5,3.36-7,6.17-10.5,8.44-3.5,2.27-6.61,3.41-9.33,3.41-4.08,0-6.13-2.27-6.13-6.82,0-4.98,1.75-11.26,5.25-18.84,3.5-7.58,8.21-14.88,14.15-21.92,5.93-7.03,12.69-13.1,20.27-18.19,7.58-5.08,15.46-7.63,23.63-7.63.97-2.16,1.85-3.68,2.63-4.55.78-.86,1.55-1.51,2.33-1.95l8.17-2.6.58.32c-.97,1.09-1.9,2.44-2.77,4.06-.88,1.62-1.8,3.3-2.77,5.03.97,0,2.43.11,4.38.32,1.94.22,3.4.44,4.38.65.97.44,1.46.97,1.46,1.62s-.29.97-.88.97c-1.17-.43-2.92-.76-5.25-.97-2.33-.21-4.08-.32-5.25-.32-8.95,17.54-15.51,31.45-19.69,41.74-4.18,10.29-6.27,17.92-6.27,22.9,0,1.95.44,3.57,1.31,4.87.88,1.3,2.67,1.95,5.4,1.95,3.11,0,6.8-1.25,11.08-3.74,4.28-2.49,8.85-5.95,13.71-10.39,4.86-4.43,9.87-9.58,15.02-15.43,5.15-5.85,10.06-12.02,14.73-18.51.39-.65.78-.81,1.17-.49.39.32.58.81.58,1.46ZM205.64,106.21c-6.61,0-12.94,2.6-18.96,7.8-6.03,5.2-11.38,11.32-16.04,18.35-4.67,7.04-8.41,14.02-11.23,20.95-2.82,6.93-4.23,12.02-4.23,15.27,0,1.74.58,2.6,1.75,2.6s2.96-.86,5.4-2.6c2.43-1.73,5.2-4.06,8.31-6.98,3.11-2.92,6.27-6.33,9.48-10.23,3.21-3.9,6.17-8.12,8.9-12.67,3.11-5.2,6.13-10.72,9.04-16.56,2.92-5.85,5.54-11.04,7.88-15.59l-.29-.32Z"/>
        <path class="cls-2" d="M310.07,131.87c-2.92,4.12-6.23,8.28-9.92,12.51-3.7,4.22-7.49,8.23-11.38,12.02-3.89,3.79-7.88,7.2-11.96,10.23-4.08,3.04-7.98,5.42-11.67,7.15-2.92,1.3-5.59,2.22-8.02,2.76-2.43.54-4.72.81-6.86.81-10.7,0-16.04-4.98-16.04-14.94,0-3.9.78-8.01,2.33-12.34,3.69-10.18,8.9-19.21,15.61-27.12,6.71-7.9,13.95-13.69,21.73-17.38,2.33-1.08,4.27-1.62,5.83-1.62,7.19,0,10.79,3.14,10.79,9.42,0,3.25-.68,5.74-2.04,7.47-1.17,1.3-3.11,3.14-5.83,5.52l-.87-.32c.58-1.73.87-3.57.87-5.52,0-2.16-.73-4.22-2.19-6.17-1.46-1.95-3.75-2.92-6.85-2.92-3.7,0-7.25,1.36-10.65,4.06-3.4,2.71-6.42,6.28-9.04,10.72-2.63,4.44-4.72,9.53-6.27,15.27-1.56,5.74-2.33,11.64-2.33,17.7,0,4.55,1.12,7.96,3.35,10.23,2.23,2.27,5.01,3.41,8.31,3.41,5.44,0,12.78-3.52,22.02-10.56,9.23-7.03,19.11-17.7,29.61-31.99.97-1.08,1.7-1.35,2.19-.81.48.54.24,1.36-.73,2.44Z"/>
        <path class="cls-2" d="M300.74,171.82c-2.73,0-4.86-.65-6.42-1.95-1.56-1.3-2.33-3.25-2.33-5.85,0-4.33,2.38-10.77,7.15-19.32,4.76-8.55,10.55-18.68,17.36-30.37.78-1.08,1.41-1.89,1.9-2.44.48-.54,1.02-1.03,1.6-1.46.97-.21,2.28-.49,3.94-.81,1.65-.32,2.67-.49,3.06-.49.78,0,1.17.32,1.17.97-7,13.64-12.88,24.74-17.65,33.29-4.77,8.56-7.15,15.21-7.15,19.97,0,2.6,1.07,3.9,3.21,3.9.97,0,2.23-.32,3.79-.97,1.56-.65,3.21-1.51,4.96-2.6,1.75-1.08,3.4-2.22,4.96-3.41,1.55-1.19,2.72-2.32,3.5-3.41,1.75-1.95,4.33-6.55,7.73-13.8,3.4-7.25,7.53-15.75,12.4-25.5,2.33-4.76,4.52-8.77,6.56-12.02,2.04-3.25,3.74-4.87,5.1-4.87.78.44,1.5,1.52,2.19,3.25.68,1.74,1.02,3.47,1.02,5.2,0,.87-.88,2.87-2.63,6.01-1.75,3.14-3.99,6.82-6.71,11.04-2.73,4.22-5.69,8.72-8.9,13.48-3.21,4.77-6.27,9.21-9.19,13.32-7,11.91-14.05,24.2-21.15,36.86-7.1,12.67-14.25,24.9-21.44,36.7-7.19,11.8-14.58,22.95-22.17,33.45-7.58,10.5-15.41,19.65-23.48,27.44-8.07,7.8-16.43,13.97-25.09,18.51-8.65,4.55-17.74,6.82-27.27,6.82-5.64,0-10.69-1.52-15.17-4.55-4.47-3.03-6.71-8.34-6.71-15.91,0-1.74.15-3.52.44-5.36.29-1.84.63-3.3,1.02-4.39.2-.65.49-1.09.88-1.3.39-.22.58.11.58.97,0,5.85,1.95,11.15,5.83,15.91,3.89,4.76,10.79,7.15,20.71,7.15,7.98,0,15.9-2.22,23.77-6.66,7.88-4.44,15.56-10.34,23.04-17.7,7.49-7.36,14.73-15.92,21.73-25.66,7-9.74,13.76-19.92,20.27-30.53,6.51-10.61,12.69-21.27,18.52-31.99,5.83-10.72,11.18-20.84,16.04-30.37.39-.86.39-1.19,0-.97-.39.22-.68.44-.88.65-2.14,1.95-5.06,4.06-8.75,6.33-3.7,2.27-7.49,3.41-11.38,3.41Z"/>
        <path class="cls-2" d="M426.46,42.55c0,5.63-2.19,13.64-6.56,24.03-4.38,10.39-12.59,22.52-24.65,36.38-.58.44-1.12.38-1.6-.16-.49-.54-.73-1.14-.73-1.79,2.92-3.25,5.88-6.71,8.9-10.39,3.01-3.68,5.73-7.58,8.17-11.69,2.43-4.11,4.42-8.39,5.98-12.83,1.55-4.44,2.33-9.04,2.33-13.8,0-2.81-.39-5.52-1.17-8.12-.78-2.6-1.95-4.65-3.5-6.17-.78-.65-1.17-1.3-1.17-1.95,0-.21.29-.86.88-1.95.58-1.08,1.31-2.16,2.19-3.25.88-1.08,1.75-2.11,2.63-3.09s1.6-1.46,2.19-1.46c.78,0,1.99,1.19,3.65,3.57,1.65,2.39,2.48,6.61,2.48,12.67Z"/>
        <path class="cls-2" d="M465.83,115.95c-.58,1.09-1.07,1.19-1.46.32-1.17-2.81-3.6-4.22-7.29-4.22-2.73,0-5.45.87-8.17,2.6-2.73,1.74-4.08,4.33-4.08,7.8,0,1.74.48,3.47,1.46,5.2.97,1.73,2.33,4.01,4.08,6.82,1.55,2.6,3.01,5.2,4.38,7.79,1.36,2.6,2.04,5.31,2.04,8.12,0,5.63-1.17,10.23-3.5,13.8s-5.1,6.44-8.31,8.61c-3.21,2.17-6.47,3.62-9.77,4.38-3.31.76-5.93,1.14-7.88,1.14-11.86,0-18.38-4.44-19.54-13.32.97-.65,2.09-1.46,3.35-2.44,1.26-.97,2.19-1.89,2.77-2.76.39,0,.68.44.88,1.3.97,3.9,2.82,7.26,5.54,10.07,2.72,2.82,5.93,4.22,9.63,4.22,1.56,0,3.4-.16,5.54-.49,2.14-.32,4.13-1.08,5.98-2.27,1.85-1.19,3.45-2.87,4.81-5.03,1.36-2.16,2.04-5.08,2.04-8.77,0-2.81-.49-5.41-1.46-7.8-.97-2.38-2.04-4.55-3.21-6.5-1.17-2.16-2.33-4.33-3.5-6.5-1.17-2.16-1.75-4.55-1.75-7.15s.82-5.41,2.48-8.45c1.65-3.03,3.74-5.79,6.27-8.28,2.52-2.49,5.3-4.6,8.31-6.33,3.01-1.73,5.98-2.6,8.9-2.6,3.11,0,4.67,1.09,4.67,3.25-.58,1.09-1.17,2.33-1.75,3.74-.58,1.41-1.07,2.65-1.46,3.74Z"/>
      </g>
      <g>
        <path class="cls-2" d="M137.85,292.7c0,4.01-1.12,8.38-3.35,13.1-2.23,4.73-5.43,9.13-9.61,13.22-4.18,4.09-9.25,7.45-15.22,10.1-5.97,2.64-12.77,3.97-20.4,3.97-3.6,0-6.77-.56-9.5-1.68-.43-.32-.65-.64-.65-.96,0-.64.29-.96.86-.96.72.32,2.05.64,3.99.96,1.94.32,3.78.48,5.5.48,5.47,0,10.54-1.2,15.22-3.61,4.68-2.4,8.71-5.53,12.09-9.37,3.38-3.85,6.04-8.17,7.99-12.98s2.91-9.62,2.91-14.42c0-6.73-1.84-11.3-5.51-13.7-3.67-2.4-8.1-3.61-13.28-3.61-3.6,0-6.84.4-9.71,1.2-1.87.64-3.31,2.01-4.32,4.09-2.74,5.13-6.01,11.26-9.82,18.39-3.82,7.13-7.66,14.51-11.55,22.11-3.89,7.61-7.63,15.02-11.23,22.24-3.6,7.21-6.62,13.46-9.07,18.75-1.59,3.53-2.37,6.41-2.37,8.65,0,3.05,1.15,5.17,3.45,6.37,2.3,1.2,5.75,1.8,10.36,1.8,1.58,0,2.37.24,2.37.72s-.36.8-1.08.96c-2.59.48-5.5.88-8.74,1.2-3.24.32-6.44.48-9.61.48-.58,0-1.48-.08-2.7-.24-1.22-.16-2.41-.44-3.56-.84-1.15-.4-2.16-.96-3.02-1.68-.86-.72-1.3-1.72-1.3-3,0-.96.36-2.4,1.08-4.33,2.01-4.97,4.68-10.58,7.99-16.83,3.31-6.25,6.48-12.18,9.5-17.79,3.6-6.73,7.48-14.22,11.66-22.48,4.17-8.25,7.84-15.66,11.01-22.24.29-.48.72-1.4,1.3-2.76.57-1.36,1.15-2.76,1.73-4.21.57-1.44,1.08-2.8,1.51-4.09.43-1.28.65-2.16.65-2.64,0-.64-.36-.96-1.08-.96-4.61.16-9.1.56-13.49,1.2-4.39.64-8.89.96-13.49.96-2.74,0-4.1-.88-4.1-2.64,0-.32.25-1.16.76-2.52.5-1.36.97-2.04,1.4-2.04.29,0,.5.32.65.96.14.8,1,1.36,2.59,1.68,1.3.32,2.88.52,4.75.6,1.87.08,3.67.12,5.4.12,4.32,0,8.71-.16,13.17-.48,4.46-.32,8.67-.72,12.63-1.2,3.96-.48,7.48-.88,10.58-1.2,3.09-.32,5.5-.48,7.23-.48,3.16,0,6.37.32,9.61.96,3.24.64,6.19,1.8,8.85,3.49,2.66,1.68,4.82,3.93,6.48,6.73,1.65,2.81,2.48,6.29,2.48,10.46Z"/>
        <path class="cls-2" d="M187.5,338.13c-2.45,3.69-5.43,7.01-8.96,9.98-3.53,2.97-7.52,4.45-11.98,4.45-2.45,0-4.86-.68-7.23-2.04-2.37-1.36-4.28-3.4-5.72-6.13-1.01,2.57-2.3,5.49-3.89,8.77-1.59,3.29-3.45,6.57-5.61,9.86-2.16,3.29-4.57,6.29-7.23,9.01-2.67,2.73-5.5,4.97-8.53,6.73-2.59,1.28-4.75,1.92-6.48,1.92-5.18,0-7.77-2.56-7.77-7.69,0-2.88.47-5.85,1.4-8.89.93-3.04,2.12-6.01,3.56-8.89,1.44-2.88,2.99-5.61,4.64-8.17,1.65-2.56,3.2-4.65,4.64-6.25,3.02-3.68,6.48-6.81,10.36-9.37,3.89-2.56,8.06-4.09,12.52-4.57.29-1.28.72-2.76,1.3-4.45.57-1.68,1.58-2.68,3.02-3,.72-.16,1.44-.32,2.16-.48.72-.16,1.37-.4,1.94-.72.43-.32.86-.36,1.3-.12.43.24.5.68.22,1.32-1.01,1.77-1.76,4.01-2.27,6.73-.51,2.73-.76,5.69-.76,8.89,0,4.49.76,8.17,2.27,11.06,1.51,2.88,4.14,4.33,7.88,4.33s7.12-1.36,10.15-4.09c3.02-2.72,5.54-5.69,7.56-8.89.29-.8.76-1.04,1.4-.72.65.32.68.8.11,1.44ZM151.88,339.82c-.29-1.44-.51-3.12-.65-5.05-.15-1.92-.22-3.76-.22-5.53,0-.8-.29-1.2-.86-1.2-1.59,0-3.24.6-4.97,1.8-1.73,1.2-3.45,2.81-5.18,4.81-1.73,2.01-3.45,4.29-5.18,6.85-1.73,2.57-3.31,5.21-4.75,7.93-1.87,3.53-3.56,7.33-5.07,11.42-1.51,4.09-2.2,7.97-2.05,11.66,0,1.12.18,2.16.54,3.13.36.96,1.19,1.44,2.48,1.44,2.45,0,5.11-1.52,7.99-4.57,2.88-3.04,5.61-6.61,8.2-10.7,2.59-4.09,4.78-8.21,6.59-12.38,1.8-4.17,2.84-7.37,3.13-9.62Z"/>
        <path class="cls-2" d="M217.72,329.96c-.86,1.12-1.76,2.49-2.7,4.09-.94,1.6-1.55,2.81-1.83,3.61-.15.48-.43.72-.86.72-.15,0-.36-.24-.65-.72-.29-.48-.68-1-1.19-1.56-.51-.56-1.19-1.08-2.05-1.56-.86-.48-2.09-.72-3.67-.72-1.87,0-3.96.72-6.26,2.16-2.3,1.44-4.32,3.05-6.04,4.81-2.74,2.57-5.15,5.37-7.23,8.41-2.09,3.05-4.07,6.21-5.94,9.5-1.87,3.29-3.67,6.65-5.4,10.1-1.73,3.45-3.6,6.93-5.61,10.46-.15.48-.58.72-1.3.72-.29,0-.9-.48-1.83-1.44-.94-.96-1.4-1.68-1.4-2.16,0-.96.5-2.4,1.51-4.33,2.3-4.48,4.64-9.01,7.02-13.58,2.37-4.57,4.6-8.85,6.69-12.86,2.08-4,3.92-7.49,5.5-10.46,1.58-2.96,2.66-5.17,3.24-6.61.72-1.44,1.22-2.16,1.51-2.16s1.01.4,2.16,1.2c1.15.8,1.73,1.92,1.73,3.37,0,.48-.25,1.28-.76,2.4-.51,1.12-1.08,2.28-1.73,3.49-.65,1.2-1.26,2.37-1.83,3.49-.58,1.12-1.01,1.92-1.3,2.4-.43.8-.51,1.2-.22,1.2s.65-.24,1.08-.72c1.44-1.6,3.2-3.37,5.29-5.29,2.09-1.92,4.28-3.73,6.59-5.41,2.3-1.68,4.57-3.08,6.8-4.21,2.23-1.12,4.21-1.68,5.94-1.68,1.3,0,2.41.36,3.35,1.08.93.72,1.4,1.48,1.4,2.28Z"/>
        <path class="cls-2" d="M346.82,207.13c0,.64-.11,1.77-.32,3.37-.22,1.6-.43,3.37-.65,5.29-.22,1.92-.43,3.85-.65,5.77-.22,1.92-.32,3.37-.32,4.33-.29.32-.65.48-1.08.48-.29,0-.58-.16-.86-.48.29-1.28.47-2.4.54-3.37.07-.96.11-1.92.11-2.88,0-3.2-1.19-5.69-3.56-7.45-2.37-1.76-5.72-2.64-10.04-2.64-3.02,0-6.15.56-9.39,1.68-3.24,1.12-6.55,3.13-9.93,6.01-3.38,2.88-6.91,6.73-10.58,11.54-3.67,4.81-7.45,10.9-11.33,18.27-2.16,4.17-4.82,9.54-7.99,16.11-3.17,6.57-6.55,13.58-10.15,21.03-3.6,7.45-7.2,15.07-10.79,22.84-3.6,7.78-6.91,15.02-9.93,21.75,1.3,0,3.45-.04,6.48-.12,3.02-.08,6.12-.12,9.28-.12h14.03c.72.48.93,1.28.65,2.4h-4.32c-2.3,0-5.04.04-8.2.12-3.17.08-6.44.16-9.82.24-3.38.08-6.44.12-9.18.12-4.75,10.26-9.75,20.55-15,30.89-5.26,10.34-10.51,20.31-15.76,29.93-5.26,9.61-10.44,18.55-15.54,26.8-5.11,8.25-9.82,15.5-14.14,21.75-10.79,15.38-21.05,28.4-30.76,39.06-9.71,10.66-18.96,19.31-27.74,25.96-8.78,6.65-17.02,11.46-24.72,14.42-7.7,2.96-15,4.45-21.91,4.45-2.01,0-4.21-.24-6.58-.72-2.37-.48-4.68-1.44-6.91-2.88-2.23-1.44-4.21-3.49-5.94-6.13-1.73-2.64-3.02-6.13-3.89-10.46,0-1.28.15-1.84.43-1.68.29.16.58.64.86,1.44.15,1.12.72,2.6,1.73,4.45,1.01,1.84,2.48,3.64,4.43,5.41,1.94,1.76,4.35,3.24,7.23,4.45,2.88,1.2,6.34,1.8,10.36,1.8,6.48-.16,13.49-1.48,21.05-3.97,7.56-2.49,15.51-6.85,23.85-13.1,8.35-6.25,17.09-14.63,26.23-25.12,9.14-10.5,18.6-23.76,28.39-39.78,5.18-8.5,10.33-17.59,15.44-27.28,5.11-9.7,10.07-19.31,14.9-28.85,4.82-9.53,9.35-18.71,13.6-27.52,4.24-8.81,8.1-16.5,11.55-23.08-6.19.48-11.08.96-14.68,1.44-3.6.48-6.48,1.24-8.63,2.28-2.16,1.04-3.85,2.57-5.07,4.57-1.22,2.01-2.63,4.77-4.21,8.29l-.65-.24c2.01-5.29,4.03-9.25,6.05-11.9,2.01-2.64,3.89-4.29,5.61-4.93,1.15-.32,2.7-.64,4.64-.96,1.94-.32,4.03-.56,6.26-.72,2.23-.16,4.43-.32,6.58-.48,2.16-.16,4.03-.24,5.61-.24,7.19-14.74,14.14-28.4,20.83-40.99,6.69-12.58,13.63-24.88,20.83-36.9,3.89-6.57,8.06-12.94,12.52-19.11,4.46-6.17,8.99-11.62,13.6-16.35,4.6-4.72,9.17-8.49,13.71-11.3,4.53-2.8,8.89-4.21,13.06-4.21,2.88,0,5.4.72,7.56,2.16,2.16,1.44,3.24,3.13,3.24,5.05Z"/>
        <path class="cls-2" d="M330.41,338.13c-2.45,3.69-5.43,7.01-8.96,9.98-3.53,2.97-7.52,4.45-11.98,4.45-2.45,0-4.86-.68-7.23-2.04-2.37-1.36-4.28-3.4-5.72-6.13-1.01,2.57-2.3,5.49-3.89,8.77-1.59,3.29-3.45,6.57-5.61,9.86-2.16,3.29-4.57,6.29-7.23,9.01-2.67,2.73-5.5,4.97-8.53,6.73-2.59,1.28-4.75,1.92-6.48,1.92-5.18,0-7.77-2.56-7.77-7.69,0-2.88.47-5.85,1.4-8.89.93-3.04,2.12-6.01,3.56-8.89,1.44-2.88,2.99-5.61,4.64-8.17,1.65-2.56,3.2-4.65,4.64-6.25,3.02-3.68,6.48-6.81,10.36-9.37,3.89-2.56,8.06-4.09,12.52-4.57.29-1.28.72-2.76,1.3-4.45.57-1.68,1.58-2.68,3.02-3,.72-.16,1.44-.32,2.16-.48.72-.16,1.37-.4,1.94-.72.43-.32.86-.36,1.3-.12.43.24.5.68.22,1.32-1.01,1.77-1.76,4.01-2.27,6.73-.51,2.73-.76,5.69-.76,8.89,0,4.49.76,8.17,2.27,11.06,1.51,2.88,4.14,4.33,7.88,4.33s7.12-1.36,10.15-4.09c3.02-2.72,5.54-5.69,7.56-8.89.29-.8.76-1.04,1.4-.72.65.32.68.8.11,1.44ZM294.79,339.82c-.29-1.44-.51-3.12-.65-5.05-.15-1.92-.22-3.76-.22-5.53,0-.8-.29-1.2-.86-1.2-1.59,0-3.24.6-4.97,1.8-1.73,1.2-3.45,2.81-5.18,4.81-1.73,2.01-3.45,4.29-5.18,6.85-1.73,2.57-3.31,5.21-4.75,7.93-1.87,3.53-3.56,7.33-5.07,11.42-1.51,4.09-2.2,7.97-2.05,11.66,0,1.12.18,2.16.54,3.13.36.96,1.19,1.44,2.48,1.44,2.45,0,5.11-1.52,7.99-4.57,2.88-3.04,5.61-6.61,8.2-10.7,2.59-4.09,4.78-8.21,6.59-12.38,1.8-4.17,2.84-7.37,3.13-9.62Z"/>
        <path class="cls-2" d="M415.04,222.27c0,2.25-.79,5.53-2.38,9.86-1.59,4.33-3.85,9.34-6.8,15.02-2.95,5.69-6.55,11.78-10.79,18.27-4.25,6.49-9.07,12.94-14.46,19.35-5.4,6.41-11.33,12.54-17.81,18.39-6.48,5.85-13.39,11.02-20.72,15.5-1.3,2.57-3.1,6.01-5.4,10.34-2.3,4.33-4.57,8.89-6.8,13.7-2.23,4.81-4.18,9.54-5.83,14.18-1.66,4.65-2.48,8.57-2.48,11.78,0,5.13,2.08,7.69,6.26,7.69,3.6,0,7.34-1.12,11.23-3.37,3.89-2.24,7.59-4.97,11.12-8.17,3.53-3.2,6.83-6.61,9.93-10.22,3.09-3.61,5.72-6.85,7.88-9.74,1-1.12,1.58-1.4,1.73-.84.14.56-.07,1.16-.65,1.8-2.59,3.53-5.65,7.29-9.18,11.3-3.53,4.01-7.27,7.69-11.23,11.06-3.96,3.37-8.1,6.17-12.41,8.41-4.32,2.25-8.64,3.37-12.95,3.37-3.74,0-6.44-1-8.1-3-1.66-2-2.48-4.45-2.48-7.33s1.11-7.01,3.35-12.38c2.23-5.37,4.86-11.02,7.88-16.95,3.02-5.93,6.04-11.54,9.07-16.83s5.25-9.29,6.69-12.02c2.45-4.65,5-9.5,7.66-14.54,2.66-5.05,5.29-9.98,7.88-14.78,2.59-4.81,5.07-9.41,7.45-13.82,2.37-4.41,4.57-8.29,6.58-11.66,2.45-4.17,4.97-8.09,7.56-11.78,2.59-3.68,5.9-7.37,9.93-11.06,5.47-5.13,10.5-9.05,15.11-11.78,4.6-2.72,7.7-4.09,9.28-4.09,1.15,0,2.08.36,2.81,1.08.72.72,1.08,1.8,1.08,3.25ZM405.33,228.52c0-2.56-.94-3.85-2.81-3.85-.72,0-1.51.24-2.38.72-.86.48-1.98,1.48-3.35,3-1.37,1.52-3.02,3.65-4.97,6.37-1.94,2.73-4.43,6.25-7.45,10.58-1.15,1.77-2.77,4.33-4.86,7.69-2.09,3.37-4.75,7.81-7.99,13.34-3.24,5.53-7.12,12.34-11.66,20.43-4.53,8.09-9.9,17.67-16.08,28.73,8.64-5.45,16.73-12.06,24.29-19.83,7.56-7.77,14.07-15.74,19.54-23.92,5.47-8.17,9.79-16.11,12.95-23.8,3.16-7.69,4.75-14.18,4.75-19.47Z"/>
        <path class="cls-2" d="M406.62,347.51c-3.45,4.97-7.41,9.7-11.87,14.18-4.46,4.49-8.56,8.09-12.31,10.82-2.88,2.08-5.83,3.69-8.85,4.81-3.02,1.12-5.76,1.68-8.2,1.68-.86,0-1.87-.08-3.02-.24-1.15-.16-2.2-.56-3.13-1.2-.94-.64-1.73-1.48-2.37-2.52-.65-1.04-.97-2.44-.97-4.21,0-2.08.72-4.93,2.16-8.53,1.44-3.61,3.13-7.33,5.07-11.18,1.94-3.85,3.89-7.53,5.83-11.06,1.94-3.52,3.49-6.17,4.64-7.93.72-1.28,1.98-2.36,3.78-3.24,1.8-.88,2.99-1.32,3.56-1.32.72,0,1.08.24,1.08.72,0,.32-.11.8-.32,1.44-.22.64-.47,1.12-.76,1.44-1.87,3.21-3.78,6.73-5.72,10.58s-3.71,7.57-5.29,11.18c-1.59,3.61-2.84,6.93-3.78,9.98-.94,3.05-1.4,5.45-1.4,7.21,0,1.92.47,3.33,1.4,4.21.93.88,2.19,1.32,3.78,1.32,2.88,0,6.04-1.08,9.5-3.25,3.45-2.16,6.87-4.77,10.25-7.81,3.38-3.04,6.51-6.25,9.39-9.61,2.88-3.37,5.11-6.25,6.69-8.65.72-.8,1.11-1,1.19-.6.07.4-.04,1-.32,1.8ZM396.91,293.91c0,1.92-.76,3.85-2.27,5.77-1.51,1.92-3.2,2.88-5.07,2.88-1.73,0-2.59-.96-2.59-2.88,0-2.08.68-4.09,2.05-6.01,1.37-1.92,3.06-2.88,5.07-2.88,1.87,0,2.81,1.04,2.81,3.13Z"/>
        <path class="cls-2" d="M467.28,338.13c-2.45,3.69-5.43,7.01-8.96,9.98-3.53,2.97-7.52,4.45-11.98,4.45-2.45,0-4.86-.68-7.23-2.04-2.37-1.36-4.28-3.4-5.72-6.13-1.01,2.57-2.3,5.49-3.89,8.77-1.59,3.29-3.45,6.57-5.61,9.86-2.16,3.29-4.57,6.29-7.23,9.01-2.67,2.73-5.5,4.97-8.53,6.73-2.59,1.28-4.75,1.92-6.48,1.92-5.18,0-7.77-2.56-7.77-7.69,0-2.88.47-5.85,1.4-8.89.93-3.04,2.12-6.01,3.56-8.89,1.44-2.88,2.99-5.61,4.64-8.17,1.65-2.56,3.2-4.65,4.64-6.25,3.02-3.68,6.48-6.81,10.36-9.37,3.89-2.56,8.06-4.09,12.52-4.57.29-1.28.72-2.76,1.3-4.45.57-1.68,1.58-2.68,3.02-3,.72-.16,1.44-.32,2.16-.48.72-.16,1.37-.4,1.94-.72.43-.32.86-.36,1.3-.12.43.24.5.68.22,1.32-1.01,1.77-1.76,4.01-2.27,6.73-.51,2.73-.76,5.69-.76,8.89,0,4.49.76,8.17,2.27,11.06,1.51,2.88,4.14,4.33,7.88,4.33s7.12-1.36,10.15-4.09c3.02-2.72,5.54-5.69,7.56-8.89.29-.8.76-1.04,1.4-.72.65.32.68.8.11,1.44ZM431.66,339.82c-.29-1.44-.51-3.12-.65-5.05-.15-1.92-.22-3.76-.22-5.53,0-.8-.29-1.2-.86-1.2-1.59,0-3.24.6-4.97,1.8-1.73,1.2-3.45,2.81-5.18,4.81-1.73,2.01-3.45,4.29-5.18,6.85-1.73,2.57-3.31,5.21-4.75,7.93-1.87,3.53-3.56,7.33-5.07,11.42-1.51,4.09-2.2,7.97-2.05,11.66,0,1.12.18,2.16.54,3.13.36.96,1.19,1.44,2.48,1.44,2.45,0,5.11-1.52,7.99-4.57,2.88-3.04,5.61-6.61,8.2-10.7,2.59-4.09,4.78-8.21,6.59-12.38,1.8-4.17,2.84-7.37,3.13-9.62Z"/>
      </g>
    </g>
  </g>
</svg>